<svg xmlns="http://www.w3.org/2000/svg" width="120.704" height="144.934" viewBox="0 0 120.704 144.934"><path d="M91.361,39.692A19.846,19.846,0,1,0,71.516,19.844,19.866,19.866,0,0,0,91.361,39.692Zm0-36.047a16.2,16.2,0,1,1-16.2,16.2A16.218,16.218,0,0,1,91.361,3.645ZM49.312,39.692A19.846,19.846,0,1,0,29.469,19.845,19.871,19.871,0,0,0,49.312,39.692Zm0-36.045a16.2,16.2,0,1,1-16.2,16.2A16.217,16.217,0,0,1,49.312,3.647ZM30.143,39.861A19.844,19.844,0,1,0,49.987,59.705,19.866,19.866,0,0,0,30.143,39.861Zm0,36.044a16.2,16.2,0,1,1,16.2-16.2A16.218,16.218,0,0,1,30.143,75.9Zm81.012-36.044A19.845,19.845,0,1,0,131,59.705,19.867,19.867,0,0,0,111.156,39.861Zm0,36.044a16.2,16.2,0,1,1,16.2-16.2A16.219,16.219,0,0,1,111.156,75.9ZM55.52,67.988,51.266,65.46l1.245-2.093L56.765,65.9Zm33.653-3.255,1.241,2.089L86.16,69.351l-1.242-2.089ZM78.039,52.009l7.04-11.534,2.073,1.266-7.04,11.534ZM55.57,39.868,62.61,51.4l-2.076,1.268L53.493,41.136ZM71.12,55.641a9.24,9.24,0,1,1-9.243,9.24A9.241,9.241,0,0,1,71.12,55.641Zm6.142,20.726a3.48,3.48,0,0,0-.478-.229,10.722,10.722,0,0,0-3.367-1.483l-2.3,2.32-2.235-2.343-.024,0A10.718,10.718,0,0,0,65.483,76.1a4.02,4.02,0,0,0-.546.266c-7.174,4.4-11.293,7.879-12.565,28.239a3.592,3.592,0,0,0,3.358,3.806c.08,0,.155.006.227.006a3.59,3.59,0,0,0,3.58-3.362c.429-6.874,1.125-11.328,2.125-14.4v12.425a7.2,7.2,0,0,0,.515,2.693,4.351,4.351,0,0,0-.045.567l.008,34.351a4.239,4.239,0,1,0,8.477,0l0-29.48c.168.008.338.021.508.021.029,0,.062,0,.1,0v29.464a4.24,4.24,0,1,0,8.48,0l0-34.14a7.235,7.235,0,0,0,.88-3.473V90.759c.979,3.067,1.666,7.5,2.089,14.3a3.587,3.587,0,0,0,3.576,3.361c.073,0,.154,0,.225-.006a3.59,3.59,0,0,0,3.358-3.806C88.553,84.247,84.434,80.768,77.262,76.367ZM71.137,95.259h-.042L68.868,92.21l2.227-14.894h.042L73.368,92.21Z" transform="translate(-10.297)" fill="#fff"/></svg>