<svg xmlns="http://www.w3.org/2000/svg" width="85.416" height="86.283" viewBox="0 0 85.416 86.283"><path d="M61.537,80.593H8.163V5.69H61.537V24.257l5.69-5.69V2.845A2.845,2.845,0,0,0,64.382,0H5.319A2.845,2.845,0,0,0,2.473,2.845V83.438a2.845,2.845,0,0,0,2.846,2.845H64.382a2.845,2.845,0,0,0,2.845-2.845V52.131l-5.69,5.69V80.593Z" transform="translate(-2.473)" fill="#fff"/><path d="M109.127,71.359h-36.6a2.174,2.174,0,0,0,0,4.348h36.6a2.174,2.174,0,0,0,0-4.348Z" transform="translate(-58.451 -58.845)" fill="#fff"/><path d="M111.3,139.652a2.175,2.175,0,0,0-2.174-2.174h-36.6a2.174,2.174,0,0,0,0,4.348h36.6A2.175,2.175,0,0,0,111.3,139.652Z" transform="translate(-58.451 -113.369)" fill="#fff"/><path d="M106.068,203.6H72.529a2.174,2.174,0,0,0,0,4.348H101.72Z" transform="translate(-58.451 -167.895)" fill="#fff"/><path d="M93.908,272.538a13.26,13.26,0,0,1,1.227-2.818H72.53a2.174,2.174,0,0,0,0,4.348H93.452Z" transform="translate(-58.452 -222.42)" fill="#fff"/><path d="M72.529,335.842a2.174,2.174,0,0,0,0,4.348h19.1a6.737,6.737,0,0,1-.311-4.348Z" transform="translate(-58.451 -276.946)" fill="#fff"/><path d="M266.7,85.536a6.068,6.068,0,0,0-8.584,0L225.952,117.7a7.471,7.471,0,0,0-1.877,3.146l-2.563,8.592a1.032,1.032,0,0,0,1.285,1.285l8.591-2.564a7.47,7.47,0,0,0,3.147-1.877L266.7,94.12a6.069,6.069,0,0,0,0-8.583Z" transform="translate(-183.064 -69.069)" fill="#fff"/></svg>