<svg xmlns="http://www.w3.org/2000/svg" width="73.555" height="64.548" viewBox="0 0 73.555 64.548"><g transform="translate(0 0)"><g transform="translate(0 48.966)"><path d="M69.892,361.334a30.955,30.955,0,0,1-5.554-2.687l-2.672,8.466-.36,1.156-1.2-3.393c2.762-3.843-.21-4.023-.721-4.038h-.06c-.51,0-3.483.18-.721,4.038l-1.2,3.393-.36-1.156-2.672-8.466a27.327,27.327,0,0,1-3.227,1.711,6.9,6.9,0,0,0-1.846-.976,37.932,37.932,0,0,1-6.59-3.182l-3.182,10.057-.435,1.366-1.426-4.038c3.272-4.563-.255-4.789-.856-4.789h-.06c-.615,0-4.128.225-.856,4.789l-1.426,4.038-.435-1.366L30.848,356.2a38.659,38.659,0,0,1-6.59,3.182,6.676,6.676,0,0,0-1.846.976,27.327,27.327,0,0,1-3.227-1.711l-2.672,8.466-.36,1.156-1.2-3.393c2.762-3.843-.21-4.023-.721-4.038h-.06c-.51,0-3.483.18-.721,4.038l-1.2,3.393-.36-1.156-2.672-8.466a32.994,32.994,0,0,1-5.554,2.687C-.165,362.73.075,365.882,0,371.782H73.555C73.48,365.882,73.72,362.73,69.892,361.334Z" transform="translate(0 -356.2)" fill="#fff"/></g><g transform="translate(27.791 25.62)"><path d="M186.932,217.582a8.438,8.438,0,0,0,5.179,6.425,5.6,5.6,0,0,0,3.8-.015,8.555,8.555,0,0,0,5.194-6.41c.39-.03.916-.585,1.486-2.582.766-2.717-.045-3.122-.736-3.062a8.173,8.173,0,0,0,.3-1.111c1.171-7.04-2.3-7.28-2.3-7.28a5.224,5.224,0,0,0-2.087-1.936,7.045,7.045,0,0,0-4.293-.9,6.406,6.406,0,0,0-1.711.33h0a7.381,7.381,0,0,0-1.876.961,10.208,10.208,0,0,0-1.936,1.591,7.677,7.677,0,0,0-2.087,3.663,7.976,7.976,0,0,0,.015,3.573h0a5.793,5.793,0,0,0,.3,1.111c-.691-.06-1.5.33-.736,3.062C186.017,217,186.542,217.552,186.932,217.582Z" transform="translate(-185.136 -200.676)" fill="#fff"/></g><g transform="translate(51.835 31.782)"><path d="M345.579,253.846c.48,1.681.916,2.162,1.261,2.177a7.131,7.131,0,0,0,4.383,5.434,4.954,4.954,0,0,0,3.227,0,7.238,7.238,0,0,0,4.4-5.434c.33-.03.781-.5,1.261-2.177.646-2.3-.045-2.642-.63-2.582a5.526,5.526,0,0,0,.255-.946c.991-5.959-1.936-6.17-1.936-6.17a4.45,4.45,0,0,0-1.771-1.636,5.96,5.96,0,0,0-3.633-.766,5.573,5.573,0,0,0-1.441.27h0a6.354,6.354,0,0,0-1.591.811,8.7,8.7,0,0,0-1.636,1.351,6.549,6.549,0,0,0-1.771,3.107,6.676,6.676,0,0,0,.015,3.032h0a5.523,5.523,0,0,0,.255.946C345.609,251.2,344.919,251.534,345.579,253.846Z" transform="translate(-345.311 -241.72)" fill="#fff"/></g><g transform="translate(6.69 31.782)"><path d="M46.076,256.023a7.132,7.132,0,0,0,4.383,5.434,4.954,4.954,0,0,0,3.227,0,7.238,7.238,0,0,0,4.4-5.434c.33-.03.781-.5,1.261-2.177.645-2.3-.045-2.642-.63-2.582a5.528,5.528,0,0,0,.255-.946c.991-5.959-1.936-6.17-1.936-6.17a4.45,4.45,0,0,0-1.771-1.636,5.96,5.96,0,0,0-3.633-.766,5.574,5.574,0,0,0-1.441.27h0a6.355,6.355,0,0,0-1.591.811,8.7,8.7,0,0,0-1.636,1.351,6.55,6.55,0,0,0-1.771,3.107,6.676,6.676,0,0,0,.015,3.032h0a5.527,5.527,0,0,0,.255.946c-.585-.06-1.276.285-.63,2.582C45.3,255.527,45.73,255.993,46.076,256.023Z" transform="translate(-44.57 -241.72)" fill="#fff"/></g><g transform="translate(45.919)"><path d="M309.5,53.087a6.558,6.558,0,0,1-2.852,3.212.545.545,0,0,0,.15,1.021,7.835,7.835,0,0,0,5.869-1.606l.03.03a13.879,13.879,0,1,0-3.332-2.777Zm5.734-4.2c.12-.42.225-.841.36-1.261.15-.48.285-.54.736-.315a7.247,7.247,0,0,0,2.417.721,2.9,2.9,0,0,0,1.591-.21,1.232,1.232,0,0,0,.3-2.162,3.625,3.625,0,0,0-.9-.525,21.513,21.513,0,0,1-2.477-1.111,3.525,3.525,0,0,1-1.982-3.347,3.673,3.673,0,0,1,2.687-3.408c.66-.24.66-.225.66-.916v-.706c.015-.525.105-.615.615-.63h.48c1.1,0,1.1,0,1.111,1.1,0,.781,0,.781.781.9a6.812,6.812,0,0,1,1.711.51.5.5,0,0,1,.33.66c-.135.48-.27.961-.42,1.426-.15.45-.285.51-.721.3a5.453,5.453,0,0,0-2.717-.54,1.932,1.932,0,0,0-.721.15,1.027,1.027,0,0,0-.255,1.831,4.518,4.518,0,0,0,1.171.66,19.651,19.651,0,0,1,2.147.976,3.859,3.859,0,0,1,1.246,5.854,4.108,4.108,0,0,1-2.132,1.366.6.6,0,0,0-.525.676c.015.375,0,.751,0,1.141a.464.464,0,0,1-.51.525q-.608.023-1.216,0a.484.484,0,0,1-.525-.555c0-.27,0-.555-.015-.826,0-.615-.03-.63-.615-.736a7.39,7.39,0,0,1-2.177-.63C315.148,49.59,315.088,49.454,315.238,48.884Z" transform="translate(-305.901 -30)" fill="#fff"/></g></g></svg>