<svg xmlns="http://www.w3.org/2000/svg" width="49.333" height="65.103" viewBox="0 0 49.333 65.103"><path d="M64.169,0H26.305a1.515,1.515,0,0,0-1.514,1.514V24.157h2.083a4.572,4.572,0,0,1,.373-6.044,4.629,4.629,0,0,1,.573-.481V3.029H62.654V4.117l-15.9,11.546V65.1L62.741,53.493a1.511,1.511,0,0,0,2.943-.485V1.514A1.514,1.514,0,0,0,64.169,0ZM52.759,41.534c-.714,0-1.31-.882-1.463-2.062H49.591V38.146H51.32c.181-1.109.753-1.924,1.438-1.924.831,0,1.5,1.188,1.5,2.656S53.589,41.534,52.759,41.534Zm-25.512-2.19a4.636,4.636,0,0,0,.572.478V53.008a1.514,1.514,0,1,1-3.029,0V33.3h2.083A4.581,4.581,0,0,0,27.248,39.344ZM38.081,27.323a1.54,1.54,0,0,1,0,2.18L30.7,36.885a1.541,1.541,0,1,1-2.179-2.179l4.751-4.751H17.891a1.541,1.541,0,1,1,0-3.082H33.27l-4.75-4.751a1.541,1.541,0,0,1,2.18-2.179Z" transform="translate(-16.35)" fill="#fff"/></svg>