<svg xmlns="http://www.w3.org/2000/svg" width="59.616" height="91.744" viewBox="0 0 59.616 91.744"><g transform="translate(0)"><path d="M141.561,40.673c-.895-.7-8.8-9.407-13.272-13.463-.019-.019-.019-.019-.019-.038V8.436A8.452,8.452,0,0,0,119.834,0H92.2a7.871,7.871,0,0,0-7.845,7.845V51.794a8.452,8.452,0,0,0,8.436,8.436h10.073a.6.6,0,0,0,.59-.647l-.438-3.732a.58.58,0,0,0-.59-.514h-1.2a.593.593,0,0,1-.59-.59V4.818a.593.593,0,0,1,.59-.59h18.661a3.438,3.438,0,0,1,3.428,3.428V52.46a2.879,2.879,0,0,1-2.095,2.742h-.038c-2.037-1.1-4.437-5.827-4.8-6.569a.367.367,0,0,1-.057-.19c-.133-1.2-1.485-12.815-7.674-12.815a4.639,4.639,0,0,0-.514.019s-4.951.419-.857,14.529c0,.038.019.057.019.1L109.113,65.9a.144.144,0,0,0,.019.076c.152.59,2.209,8.569,7.522,14.224a.615.615,0,0,1,.152.4v1.352a.05.05,0,0,1-.057.057h-.476a2.121,2.121,0,0,0-2.114,2.114v5.5a2.121,2.121,0,0,0,2.114,2.114h22.412A2.121,2.121,0,0,0,140.8,89.63V84.165a2.121,2.121,0,0,0-2.114-2.114.05.05,0,0,1-.057-.057c.743-6.893,3.408-30.467,4.837-32.314a.6.6,0,0,0,.1-.19C143.807,48.633,145.045,43.4,141.561,40.673ZM93.175,54.783a.532.532,0,0,1-.533.533,3.4,3.4,0,0,1-3.389-3.389V7.617a3.4,3.4,0,0,1,3.389-3.389.532.532,0,0,1,.533.533Z" transform="translate(-84.359)" fill="#fff"/></g></svg>