<svg xmlns="http://www.w3.org/2000/svg" width="70.774" height="57.906" viewBox="0 0 70.774 57.906"><path d="M43.807,60.046c-4.674-2.692-12.229-2.706-16.874,0s-4.617,7.077.058,9.769,12.229,2.692,16.86,0C48.51,67.108,48.482,62.738,43.807,60.046Zm-2.142,4.24c-.405.13-.8.26-1.216.376a.7.7,0,0,1-.507.029.422.422,0,0,1-.159-.188,3.4,3.4,0,0,0-1.245-1.129c-.058-.043-.13-.072-.2-.116a2.287,2.287,0,0,0-.579-.217c-.781-.174-1.462.116-1.36.593a1.862,1.862,0,0,0,.333.709,9.851,9.851,0,0,1,.781,1.187c.651,1.3-.767,2.576-3.025,2.706a6.41,6.41,0,0,1-2.316-.289.849.849,0,0,0-.8.058c-.232.145-.492.289-.738.434a.641.641,0,0,1-.68,0l-.478-.261c-.116-.058-.217-.13-.333-.2-.232-.13-.2-.275.029-.42.174-.1.362-.217.535-.318.405-.232.405-.261.072-.521a4.2,4.2,0,0,1-1.028-1.071c-.188-.3-.13-.376.333-.535.362-.116.709-.232,1.071-.347.26-.087.405-.1.521-.043a.473.473,0,0,1,.159.2,3.93,3.93,0,0,0,1.114,1.2l.26.174a3.172,3.172,0,0,0,.926.362c.883.2,1.708-.159,1.606-.709a1.538,1.538,0,0,0-.246-.55,10.146,10.146,0,0,1-.912-1.36c-.333-.767-.188-1.476.9-2.026a5.437,5.437,0,0,1,4.009-.275c.593.159.593.159,1.042-.1.159-.087.3-.174.463-.261a.652.652,0,0,1,.81,0,.629.629,0,0,1,.1.058c.072.043.145.087.2.13.724.42.724.42.014.839-.507.289-.507.3-.087.637a3.912,3.912,0,0,1,.8.839C42,64.084,41.94,64.2,41.665,64.286Zm28.669,4.921-42.461-24.5a2.36,2.36,0,0,0-2.113,0l-25.3,14.7a.653.653,0,0,0,0,1.23l42.447,24.5a2.315,2.315,0,0,0,2.113,0l25.312-14.7A.65.65,0,0,0,70.334,69.207ZM48.207,79.482a3.939,3.939,0,0,0-.854-.622,8.615,8.615,0,0,0-7.8,0,4.873,4.873,0,0,0-.449.3l-28.6-16.527a6.5,6.5,0,0,0,.781-.376c2.142-1.245,2.127-3.271-.029-4.515a6.023,6.023,0,0,0-.753-.362L22.3,50.538a5.231,5.231,0,0,0,.622.434,8.615,8.615,0,0,0,7.8,0,3.781,3.781,0,0,0,.637-.449L60.045,67.094a5.861,5.861,0,0,0-1.056.478c-2.142,1.245-2.127,3.271.029,4.515a7.657,7.657,0,0,0,1.1.492Zm3.459-6.252L49.8,74.316a1.15,1.15,0,0,1-1.042,0l-3.285-1.9c-.289-.174-.289-.434,0-.608l1.867-1.085a1.15,1.15,0,0,1,1.042,0l3.285,1.9C51.955,72.8,51.955,73.071,51.665,73.23ZM25.326,58.02l-1.867,1.085a1.15,1.15,0,0,1-1.042,0l-3.285-1.9c-.289-.174-.289-.434,0-.608L21,55.516a1.15,1.15,0,0,1,1.042,0l3.285,1.9C25.616,57.586,25.616,57.861,25.326,58.02ZM67.469,76.747l3.3,1.91L44.241,94.07l-.868-.492-2.446-1.4L0,68.5l3.271-1.9L44.212,90.249Zm-.058,8.35,3.3,1.91L44.285,102.362l-.854-.492-2.446-1.4L0,76.747l3.271-1.9,41,23.705Z" transform="translate(0 -44.456)" fill="#fff"/></svg>