<svg xmlns="http://www.w3.org/2000/svg" width="65.398" height="72.672" viewBox="0 0 65.398 72.672"><g transform="translate(0 0)"><path d="M59.445,110.424a2.492,2.492,0,0,0-2.492-2.492c-3.241,0-4.935-1.811-7.081-4.1a18.064,18.064,0,0,0-5.3-4.355L41.31,97.941,40.041,96.86a.218.218,0,0,0-.3.013l-2.01,2.02a.253.253,0,0,0-.059.2l1.951,13.086a.317.317,0,0,1-.069.244l-1.846,2.255a.316.316,0,0,1-.49,0l-1.846-2.255a.317.317,0,0,1-.069-.244L37.254,99.1a.253.253,0,0,0-.059-.2l-2.011-2.02a.217.217,0,0,0-.3-.013l-1.269,1.081L30.2,99.566c-5,2.542-5.893,9.586-6.917,17.732-.195,1.551-.4,3.154-.631,4.749a2.492,2.492,0,0,0,2.1,2.827,2.534,2.534,0,0,0,.365.027,2.493,2.493,0,0,0,2.463-2.131c.241-1.646.446-3.274.644-4.85a84.521,84.521,0,0,1,1.35-8.5l0,10.585a5.84,5.84,0,0,0,1.244,3.572l0,27a3,3,0,0,0,6,0v-23.8c.213.018.426.028.636.028s.423-.01.636-.028v23.8a3,3,0,1,0,6,0v-27A5.839,5.839,0,0,0,45.351,120l0-13.7c.291.3.582.611.878.927,2.369,2.532,5.318,5.683,10.72,5.683A2.492,2.492,0,0,0,59.445,110.424Z" transform="translate(-22.627 -81.248)" fill="#fff"/><path d="M81.385,15.412c3.646,0,6.366-3.4,6.428-9.093C87.853,2.365,85.97,0,81.385,0s-6.468,2.365-6.428,6.318C75.018,12.014,77.739,15.412,81.385,15.412Z" transform="translate(-66.546 0)" fill="#fff"/><path d="M275.067,263.725c-2.225-1.01-2.965-1.508-2.965-2.459,0-.7.709-1.41,2.293-1.41a2.423,2.423,0,0,1,1.6.443v.417a1.864,1.864,0,0,0,1.864,1.864h.406a1.864,1.864,0,0,0,1.863-1.864v-.74c0-2.313-1.874-3.541-3.893-4.012v-.574a1.863,1.863,0,0,0-1.863-1.863h-.406a1.863,1.863,0,0,0-1.863,1.863v.7a5.484,5.484,0,0,0-4.18,5.205c0,3.745,3.077,5.158,5.325,6.19,2.16.992,3.108,1.547,3.108,2.7a1.927,1.927,0,0,1-2.174,1.863,3.581,3.581,0,0,1-2.948-1.687,1.863,1.863,0,0,0-2.7-.452l-.338.261a1.863,1.863,0,0,0-.41,2.512,7.909,7.909,0,0,0,4.314,3.185v.625a1.864,1.864,0,0,0,1.863,1.863h.406a1.863,1.863,0,0,0,1.863-1.863v-.625a5.952,5.952,0,0,0,4.3-5.729C280.533,266.207,277.374,264.773,275.067,263.725Z" transform="translate(-228.12 -212.779)" fill="#fff"/><path d="M206.2,209.312a19.515,19.515,0,1,0,19.515,19.515A19.537,19.537,0,0,0,206.2,209.312Zm0,34.488a14.972,14.972,0,1,1,14.972-14.972A14.99,14.99,0,0,1,206.2,243.8Z" transform="translate(-160.317 -175.67)" fill="#fff"/></g></svg>