<svg xmlns="http://www.w3.org/2000/svg" width="54.845" height="65.271" viewBox="0 0 54.845 65.271"><path d="M71.887,16.806c-.034-1.762-.065-3.427-.065-5.037a2.285,2.285,0,0,0-2.285-2.285c-9.771,0-17.21-2.808-23.411-8.837a2.284,2.284,0,0,0-3.185,0C36.74,6.676,29.3,9.484,19.532,9.484a2.285,2.285,0,0,0-2.285,2.285c0,1.611-.032,3.276-.065,5.039-.313,16.4-.742,38.859,26.6,48.337a2.282,2.282,0,0,0,1.5,0C72.628,55.667,72.2,33.206,71.887,16.806ZM44.533,60.562c-23.452-8.519-23.1-27.182-22.782-43.667.019-.989.037-1.948.05-2.888,9.151-.386,16.468-3.159,22.732-8.616,6.265,5.457,13.584,8.23,22.735,8.616.013.94.031,1.9.05,2.887C67.633,33.379,67.987,52.042,44.533,60.562Z" transform="translate(-17.112 0)" fill="#fff"/><path d="M88.142,79.555,77.115,90.581l-4.705-4.705a2.285,2.285,0,0,0-3.231,3.231L75.5,95.428a2.285,2.285,0,0,0,3.231,0L91.372,82.786a2.285,2.285,0,1,0-3.23-3.231Z" transform="translate(-52.853 -54.856)" fill="#fff"/></svg>