<svg xmlns="http://www.w3.org/2000/svg" width="17.141" height="21.302" viewBox="0 0 17.141 21.302"><path d="M65.468,0H51.693A1.685,1.685,0,0,0,50.01,1.683V19.619A1.685,1.685,0,0,0,51.693,21.3H65.468a1.685,1.685,0,0,0,1.683-1.683V1.683A1.685,1.685,0,0,0,65.468,0ZM59.721,1.87h2.6v3.6l-.629-.423a1.2,1.2,0,0,0-1.342,0l-.629.423V1.87Zm5.56,17.562H51.88V14.479h13.4Zm0-6.824H51.88V1.87h5.971V6.725a1.2,1.2,0,0,0,1.873,1l1.3-.873,1.3.873a1.2,1.2,0,0,0,1.873-1V1.87h1.09V12.609Z" transform="translate(-50.01)" fill="#01adee"/></svg>