<svg xmlns="http://www.w3.org/2000/svg" width="17.655" height="21.24" viewBox="0 0 17.655 21.24"><path d="M9.628,12.873A2.436,2.436,0,0,1,6.966,10.3H7.2c0,.675.45,1.015,1.272,1.015,1.749,0,2.228-1.881,3.488-1.881.438,0,.554.193.486.5a.619.619,0,0,1-.706.5h-.481l-.2.91h.42A1.729,1.729,0,0,0,13.211,10.3h.223A4.183,4.183,0,0,1,9.628,12.873Zm-.53-4.4H9.29l-.2.909H8.834c-.437,0-.642.176-.71.481s.06.481.5.481c1.26,0,1.737-1.881,3.487-1.881.831,0,1.285.359,1.275,1.041h.223a2.435,2.435,0,0,0-2.664-2.576,4.18,4.18,0,0,0-3.8,2.576h.232A1.724,1.724,0,0,1,9.1,8.477ZM20.6.933V5.812a.934.934,0,0,1-.933.935H18.052L14.966,20.676a.719.719,0,0,1-.7.564H5.709a.724.724,0,0,1-.56-.268.714.714,0,0,1-.141-.605l.348-1.57H4.094a.725.725,0,0,1-.56-.269.713.713,0,0,1-.14-.606L5.866,6.748H3.883a.934.934,0,0,1-.934-.935V.934A.935.935,0,0,1,3.883,0H19.671A.931.931,0,0,1,20.6.933ZM12.072,17.356,14.42,6.747H7.339L4.99,17.356ZM16.578,6.747h-.685L13.349,18.23a.72.72,0,0,1-.7.565H6.827L6.6,19.8h7.083Z" transform="translate(-2.949 0)" fill="#01adee"/></svg>