<svg xmlns="http://www.w3.org/2000/svg" width="365.176" height="72.09" viewBox="0 0 365.176 72.09"><g transform="translate(131.276 -216.772)"><path d="M46.267,244.4h.122a1.153,1.153,0,0,1,1.157,1.278v32.81a1.157,1.157,0,1,1-2.313,0V245.557A1.1,1.1,0,0,1,46.267,244.4Zm-31.228,1.7H36.527a1.259,1.259,0,0,1,1.157,1.278,1.154,1.154,0,0,1-1.157,1.157H16.2v13.7H34.579a1.157,1.157,0,0,1,0,2.313h-18.2v14.122a1.487,1.487,0,0,1-1.4,1.278,1.248,1.248,0,0,1-1.278-1.278V247.444h.122A1.218,1.218,0,0,1,15.039,246.1ZM77.434,256.27a1.157,1.157,0,0,0-2.313,0v13.7a8.216,8.216,0,0,1-8.522,8.218c-4.992,0-7.853-3.226-7.853-8.34V256.27a1.118,1.118,0,0,0-1.157-1.157,1.243,1.243,0,0,0-1.157,1.157v14c0,5.783,3.713,10.044,9.8,10.044a9.691,9.691,0,0,0,8.948-5.113v3.531a1.157,1.157,0,1,0,2.313,0h-.122V256.27Zm21.61.183a1.089,1.089,0,0,1-1.157.974H90.034v15.705c0,3.531,2.009,4.809,4.992,4.809a8.8,8.8,0,0,0,2.861-.426.961.961,0,0,1,.974.974,1.042,1.042,0,0,1-.73.974,10.405,10.405,0,0,1-3.531.548c-3.713,0-6.818-2.131-6.818-6.635V257.427H85.1a1.243,1.243,0,0,1-1.157-1.157A1.089,1.089,0,0,1,85.1,255.3h2.678v-6.757a1.131,1.131,0,0,1,.974-1.157h.122a1.243,1.243,0,0,1,1.157,1.157V255.3h7.853A1.2,1.2,0,0,1,99.044,256.453Zm18.262.974a1.131,1.131,0,0,0,1.157-.974,1.243,1.243,0,0,0-1.157-1.157h-7.853v-6.757a1.243,1.243,0,0,0-1.157-1.157h-.122a1.09,1.09,0,0,0-.974,1.157V255.3h-2.678a1.131,1.131,0,0,0-1.157.974,1.243,1.243,0,0,0,1.157,1.157H107.2v15.949c0,4.5,3.1,6.635,6.818,6.635a9.968,9.968,0,0,0,3.531-.548,1.042,1.042,0,0,0,.73-.974.961.961,0,0,0-.974-.974,8.556,8.556,0,0,1-2.861.426c-2.983,0-4.992-1.278-4.992-4.809V257.427Zm5.418,10.044c0-7.183,4.992-12.844,11.688-12.844,7,0,11.383,5.661,11.383,12.844a1.243,1.243,0,0,1-1.157,1.157H125.28c.426,6.087,4.87,9.618,9.679,9.618a11.144,11.144,0,0,0,7.974-3.409,1.163,1.163,0,0,1,.73-.3,1.243,1.243,0,0,1,1.157,1.157,1.151,1.151,0,0,1-.426.852,12.34,12.34,0,0,1-9.557,3.957c-6.574,0-12.114-5.113-12.114-12.844Zm32.323-5.113a11.542,11.542,0,0,1,9.8-7.366,1.282,1.282,0,0,1,1.278,1.4,1.259,1.259,0,0,1-1.157,1.278h-.122c-5.3.548-9.8,4.383-9.8,12.3v9.07a1.221,1.221,0,0,1-1.278,1.157,1.243,1.243,0,0,1-1.157-1.157V256.392a1.221,1.221,0,0,1,1.278-1.157,1.243,1.243,0,0,1,1.157,1.157Zm48.637-8.644a3.641,3.641,0,0,0-3.531,2.8l-4.139,13.149-4.139-13.149a3.982,3.982,0,0,0-3.835-2.983h-.426a3.851,3.851,0,0,0-3.835,2.983l-4.139,13.027-3.957-13.149a3.709,3.709,0,0,0-3.531-2.8h-.122A3.379,3.379,0,0,0,168.743,257a5.591,5.591,0,0,0,.3,1.7h0l6.392,18.262a4.233,4.233,0,0,0,3.957,3.226h.3a4.2,4.2,0,0,0,3.957-3.1l4.139-13.027,4.139,13.027a4.1,4.1,0,0,0,3.957,3.1h.3a4.129,4.129,0,0,0,4.139-3.226l6.392-18.384a5.773,5.773,0,0,0,.3-1.4v-.122A3.338,3.338,0,0,0,203.684,253.714Zm9.983,1.278a23.8,23.8,0,0,1,8.279-1.278,13.17,13.17,0,0,1,8.948,2.983,11.629,11.629,0,0,1,2.861,8.218V276.48a3.5,3.5,0,0,1-3.531,3.531,3.419,3.419,0,0,1-3.531-3.1,10.043,10.043,0,0,1-7.853,3.226c-4.687,0-8.827-2.8-8.827-7.913,0-5.661,4.261-8.34,10.409-8.34a19.853,19.853,0,0,1,6.27.974v-.426c0-3.1-1.826-4.687-5.539-4.687a14.869,14.869,0,0,0-5.113.73,3.224,3.224,0,0,1-4.078-2.678A2.664,2.664,0,0,1,213.667,254.992Zm42,1.157a3.541,3.541,0,0,1,6.939.852v.122a3.536,3.536,0,0,1-.426,1.7l-7.67,18.262a4.958,4.958,0,0,1-4.261,3.1h-.426a4.577,4.577,0,0,1-4.139-3.226l-7.974-18.262a3.452,3.452,0,0,1,3.1-5.113,3.669,3.669,0,0,1,3.531,2.678l5.539,14.853Zm9.861,11.87a12.789,12.789,0,0,0,13.514,12.175,13.7,13.7,0,0,0,8.948-3.1,2.461,2.461,0,0,0,.974-2.131v-.122a2.806,2.806,0,0,0-2.861-2.8,2.5,2.5,0,0,0-1.7.548,8.119,8.119,0,0,1-5.3,1.7,5.99,5.99,0,0,1-6.27-5.113h14.67a3.291,3.291,0,0,0,3.1-3.531V265.1a11.866,11.866,0,0,0-12.357-11.566c-7.548,0-12.844,6.087-12.844,13.453v1.035Z" transform="translate(-56.725 -10.81)" fill="#10112b"/><path d="M196.7,274.3c.426-5.357,4.261-9.5,9.131-9.5,5.539,0,8.522,4.5,8.827,9.5Zm101.657,4.261c0,2.8-2.435,4.5-5.844,4.383-2.252,0-3.957-1.157-3.957-3.1v-.122c0-2.131,2.009-3.531,5.113-3.531a13.426,13.426,0,0,1,4.687.974Zm51.559-11.2c-2.983,0-4.992,2.131-5.539,5.539h10.957C354.908,269.609,352.9,267.357,349.917,267.357Z" transform="translate(-128.328 -18.792)" fill="#fff"/><path d="M-79.792,217.337c32.019-4.809,11.5,22.462,1.583,30.132,6.818,5.235,13.818,12.6,16.8,20.94,5.539,15.279-8.1,17.531-18.384,13.7-11.261-3.957-21.184-12.418-27.758-22.34a21.027,21.027,0,0,1-5.722-.852c3.713,10.47,5.3,21.184,4.261,29.949,0-17.653-8.4-35.184-20.514-49.794-4.261-5.113.122-8.887,3.957-3.957a107.723,107.723,0,0,1,7.122,11.14C-114.246,231.886-93.793,219.346-79.792,217.337Zm-4.565,25.993c6.27-3.835,25.323-24.288,7.548-22.462-10.227,1.157-22.645,10.592-27.758,16.679C-97.445,236.695-90.2,239.8-84.358,243.33Zm-17.653,15.888c5.722,6.392,13.514,12.6,21.914,14.853,4.87,1.278,10.227.73,8.279-6.209-2.009-6.392-7.122-11.992-12.114-16.253a26.381,26.381,0,0,1-4.565,2.678A44.07,44.07,0,0,1-102.011,259.217Z" fill="#eba12a"/><path d="M-90.313,258.27c4.87-.426,10.1,2.131,14.122,4.687a33.488,33.488,0,0,1-12.54,3.226C-95.243,266.244-96.582,258.879-90.313,258.27Z" transform="translate(-14.437 -16.219)" fill="#fff"/></g></svg>