<svg xmlns="http://www.w3.org/2000/svg" width="24.707" height="24.707" viewBox="0 0 24.707 24.707"><g transform="translate(0)"><path d="M45.244,5.149A2.574,2.574,0,1,0,42.67,2.576,2.577,2.577,0,0,0,45.244,5.149Zm0-4.118A1.544,1.544,0,1,1,43.7,2.576,1.546,1.546,0,0,1,45.244,1.031Z" transform="translate(-40.611 -0.002)" fill="#01adee"/><path d="M8.572,130.5A2.724,2.724,0,0,0,5.947,128H3.319a2.724,2.724,0,0,0-2.625,2.5l-.683,5.979a1.75,1.75,0,0,0,.423,1.362,1.521,1.521,0,0,0,1.057.52l.568,7.692a.515.515,0,0,0,.514.477H6.691a.517.517,0,0,0,.515-.477l.568-7.692a1.519,1.519,0,0,0,1.057-.52,1.751,1.751,0,0,0,.423-1.362Zm-.51,6.655a.511.511,0,0,1-.377.178H7.295a.515.515,0,0,0-.514.477l-.568,7.69H3.052l-.569-7.69a.515.515,0,0,0-.514-.477H1.578a.515.515,0,0,1-.377-.178.719.719,0,0,1-.168-.56l.683-5.979a1.7,1.7,0,0,1,1.6-1.587H5.946a1.7,1.7,0,0,1,1.6,1.587l.683,5.979A.715.715,0,0,1,8.063,137.157Z" transform="translate(0 -121.824)" fill="#01adee"/><path d="M341.851,234.668a.515.515,0,0,0-.515.515v2.059a.515.515,0,0,0,1.029,0v-2.059A.515.515,0,0,0,341.851,234.668Z" transform="translate(-324.865 -223.344)" fill="#01adee"/><path d="M225.527,0H214.881a1.546,1.546,0,0,0-1.544,1.544v18.53a1.546,1.546,0,0,0,1.544,1.544h2.574v.866a2.224,2.224,0,0,0,3.1,2.043l5.848-2.507a2.221,2.221,0,0,0,1.348-2.043V2.225A2.226,2.226,0,0,0,225.527,0Zm-8.072,4.729v15.86h-2.574a.516.516,0,0,1-.515-.515V1.546a.516.516,0,0,1,.515-.515h7.786L218.8,2.688A2.221,2.221,0,0,0,217.455,4.731Zm9.265,15.248a1.191,1.191,0,0,1-.724,1.1l-5.848,2.507a1.193,1.193,0,0,1-1.664-1.1V4.731a1.191,1.191,0,0,1,.724-1.1l5.848-2.507a1.193,1.193,0,0,1,1.664,1.1V19.979Z" transform="translate(-203.042 -0.002)" fill="#01adee"/></g></svg>