<svg xmlns="http://www.w3.org/2000/svg" width="24.198" height="22.27" viewBox="0 0 24.198 22.27"><path d="M114.071,91.013v-.425a.607.607,0,1,0-1.214,0v.44a2.546,2.546,0,0,0,0,4.914v2.551a4.494,4.494,0,0,1-1.206-.974.607.607,0,0,0-.929.781,5.014,5.014,0,0,0,2.135,1.492v.45a.607.607,0,1,0,1.214,0v-.429a2.544,2.544,0,0,0,0-4.936v-2.6a3.785,3.785,0,0,1,1.232.819.607.607,0,0,0,.877-.84A4.661,4.661,0,0,0,114.071,91.013Zm-1.88,2.472a1.33,1.33,0,0,1,.666-1.157v2.313A1.329,1.329,0,0,1,112.191,93.485Zm2.593,3.862a1.328,1.328,0,0,1-.713,1.181V96.167A1.327,1.327,0,0,1,114.784,97.347Z" transform="translate(-101.631 -83.663)" fill="#01adee"/><path d="M21.577,27.638a2.609,2.609,0,0,0-1.717.643l-1.733-1.155A7.173,7.173,0,0,0,17.76,19.6l1.169-.936a2.623,2.623,0,1,0-.844-.88l-1.095.876a7.173,7.173,0,0,0-9.792-.49l-2.326-2.3a2.626,2.626,0,1,0-.845.871l2.314,2.292a7.172,7.172,0,0,0-.4,8.747L3.75,29.6a1.923,1.923,0,1,0,.853.87l2.121-1.767a7.178,7.178,0,0,0,7.77,1.628l.541,1.082a1.613,1.613,0,1,0,1.136-.469h-.013l-.579-1.158a7.242,7.242,0,0,0,1.874-1.657l1.7,1.133a2.62,2.62,0,1,0,2.425-1.629Zm-1.23-12.585A1.407,1.407,0,1,1,18.94,16.46,1.409,1.409,0,0,1,20.347,15.053ZM2.874,32.024a.709.709,0,1,1,.709-.709A.71.71,0,0,1,2.874,32.024Zm13.7.537a.4.4,0,1,1-.4-.4A.4.4,0,0,1,16.57,32.562ZM2.621,15.933a1.407,1.407,0,1,1,1.407-1.407A1.409,1.409,0,0,1,2.621,15.933Zm9.212,13.7a5.973,5.973,0,1,1,5.973-5.973A5.98,5.98,0,0,1,11.833,29.632Zm9.744,2.034a1.407,1.407,0,1,1,1.407-1.407A1.409,1.409,0,0,1,21.577,31.665Z" transform="translate(0 -11.905)" fill="#01adee"/></svg>