<svg xmlns="http://www.w3.org/2000/svg" width="80.26" height="80.269" viewBox="0 0 80.26 80.269"><g transform="translate(0 -0.001)"><g transform="translate(0 0.001)"><path d="M79.059,49.844A40.12,40.12,0,1,1,49.833,1.2,40.124,40.124,0,0,1,79.059,49.844h0Z" transform="translate(0 -0.001)" fill="#f7931a"/><path d="M1033.769,733.184c.8-5.341-3.267-8.212-8.828-10.127l1.8-7.235-4.4-1.1-1.756,7.044c-1.158-.289-2.347-.561-3.529-.831l1.769-7.091-4.4-1.1-1.8,7.233c-.958-.218-1.9-.434-2.812-.661l.005-.023-6.073-1.517-1.172,4.7s3.267.749,3.2.8a2.344,2.344,0,0,1,2.052,2.561l-2.055,8.242a3.575,3.575,0,0,1,.458.147c-.147-.036-.3-.076-.465-.115l-2.88,11.546a1.6,1.6,0,0,1-2.018,1.046c.044.064-3.2-.8-3.2-.8l-2.187,5.041,5.731,1.429c1.066.267,2.111.547,3.14.81l-1.823,7.318,4.4,1.1,1.8-7.24c1.2.326,2.368.627,3.51.911l-1.8,7.206,4.4,1.1,1.822-7.3c7.51,1.421,13.157.848,15.534-5.944,1.915-5.469-.1-8.623-4.046-10.68,2.878-.664,5.045-2.556,5.623-6.466h0Zm-10.062,14.11c-1.361,5.469-10.569,2.513-13.554,1.771l2.418-9.695c2.985.745,12.558,2.22,11.136,7.924Zm1.362-14.189c-1.242,4.975-8.905,2.447-11.392,1.828l2.193-8.793c2.486.62,10.492,1.776,9.2,6.965Z" transform="translate(-975.941 -698.768)" fill="#fff"/></g></g></svg>