<svg xmlns="http://www.w3.org/2000/svg" width="152.407" height="108" viewBox="0 0 152.407 108"><rect width="152.407" height="108" fill="none"/><rect width="31.5" height="56.606" transform="translate(60.412 25.697)" fill="#ff5f00"/><path d="M382.208,306a35.938,35.938,0,0,1,13.75-28.3,36,36,0,1,0,0,56.606,35.938,35.938,0,0,1-13.75-28.3Z" transform="translate(-319.796 -252)" fill="#eb001b"/><path d="M454.2,306a36,36,0,0,1-58.245,28.3,36.005,36.005,0,0,0,0-56.606A36,36,0,0,1,454.2,306Z" transform="translate(-319.796 -252)" fill="#f79e1b"/><path d="M450.769,328.308v-1.159h.467v-.236h-1.19v.236h.467v1.159Zm2.31,0v-1.4h-.365l-.42.961-.42-.961h-.365v1.4h.258v-1.054l.393.909h.267l.394-.911v1.056Z" transform="translate(-319.796 -252)" fill="#f79e1b"/></svg>