<svg xmlns="http://www.w3.org/2000/svg" width="18.209" height="21.534" viewBox="0 0 18.209 21.534"><path d="M118.938,24.31a2.7,2.7,0,0,0-1.55.4l-4.611,2.469-2.564,3.488c-.54.834-.156,2.445,1.531,1.412l1.848-2.436c2.346-2.023,7.133-1.095,4.863,2.967-1.114,2.351-.592,3.5.844,3.981l.654-2.2c1.133-2.55,3.246-3.009,3.161-5.066l5.081.365-.047-5.312Zm-2.564,4.9a3.458,3.458,0,0,0-2.223.82L112.3,32.466c.507.4,1.019.185,1.526-.3.6.3,1.062-.166,1.441-1.1A3.678,3.678,0,0,1,116.375,29.21ZM112.6,33.76a.27.27,0,0,0-.062,0c-.156.033-.341.2-.464.578a3.339,3.339,0,0,0,.573,2.863c.256.3.493.384.649.351s.341-.2.464-.573a3.042,3.042,0,0,0,.047-1.5,3.073,3.073,0,0,0-.616-1.365A.844.844,0,0,0,112.6,33.76Zm3.915,5.062a3.227,3.227,0,0,0-1.3.346,3.06,3.06,0,0,0-1.161.953c-.223.327-.242.573-.171.72s.28.28.678.3a3.347,3.347,0,0,0,2.621-1.294c.223-.327.242-.578.171-.72s-.28-.28-.678-.3C116.621,38.821,116.574,38.821,116.517,38.821Zm-4.626,4.531a2.365,2.365,0,0,0-.607.09.83.83,0,0,0-.441,1.469,2.79,2.79,0,0,0,1.3.8,2.706,2.706,0,0,0,1.521.043.827.827,0,0,0,.441-1.469,2.749,2.749,0,0,0-1.3-.8A3.1,3.1,0,0,0,111.891,43.352Z" transform="translate(-109.985 -24.31)" fill="#01adee"/></svg>