<svg xmlns="http://www.w3.org/2000/svg" width="13.406" height="30.109" viewBox="0 0 13.406 30.109"><g transform="translate(2.112 1.987)"><path d="M182.517,33.781a4.591,4.591,0,1,0,4.591,4.591A4.6,4.6,0,0,0,182.517,33.781Zm0,7.983a3.392,3.392,0,1,1,3.392-3.392A3.4,3.4,0,0,1,182.517,41.764Z" transform="translate(-177.926 -33.781)" fill="#01adee"/></g><g transform="translate(5.037 3.87)"><path d="M229.629,68v-.972c.433.033.559.246.779.246.293,0,.413-.366.413-.546,0-.459-.779-.566-1.191-.579v-.166c0-.093-.126-.18-.253-.18-.146,0-.253.087-.253.18v.186a1.361,1.361,0,0,0-1.331,1.351c0,.852.719,1.138,1.331,1.371v1.078c-.493-.087-.719-.479-1-.479-.253,0-.453.333-.453.559,0,.426.652.839,1.451.865v.166c0,.093.107.18.253.18.126,0,.253-.086.253-.18v-.193a1.415,1.415,0,0,0,1.311-1.451C230.94,68.542,230.235,68.229,229.629,68Zm-.439-.16c-.253-.106-.426-.226-.426-.419,0-.16.126-.313.426-.373Zm.373,2.123v-.892h0c.24.113.406.253.406.473C229.968,69.786,229.789,69.913,229.562,69.966Z" transform="translate(-227.672 -65.806)" fill="#01adee"/></g><path d="M154.822,18.424h-5.5v-.335a4.2,4.2,0,0,0,3.659-4.163.6.6,0,0,0-.6-.6,4.186,4.186,0,0,0-3.059,1.327V13.128a6.577,6.577,0,1,0-1.2,0v5.3h-5.5a.6.6,0,0,0-.6.6v2.712a.6.6,0,0,0,.6.6h.6v7.173a.6.6,0,0,0,.6.6h9.807a.6.6,0,0,0,.6-.6V22.336h.6a.6.6,0,0,0,.6-.6V19.024A.6.6,0,0,0,154.822,18.424ZM151.7,14.6a3.009,3.009,0,0,1-2.245,2.245A3.009,3.009,0,0,1,151.7,14.6Zm-8.36-8.026a5.378,5.378,0,1,1,5.378,5.378A5.384,5.384,0,0,1,143.341,6.578Zm9.682,22.331h-8.607V22.336h8.607v6.573Zm1.2-7.772H143.216V19.624h11.007Z" transform="translate(-142.016)" fill="#01adee"/><g transform="translate(2.984 23.523)"><path d="M193.365,400.013a.6.6,0,0,0-.6.6v.12a.6.6,0,0,0,1.2,0v-.12A.6.6,0,0,0,193.365,400.013Z" transform="translate(-192.765 -400.013)" fill="#01adee"/></g><g transform="translate(2.984 25.383)"><path d="M193.365,431.635a.6.6,0,0,0-.6.6v1.8a.6.6,0,1,0,1.2,0v-1.8A.6.6,0,0,0,193.365,431.635Z" transform="translate(-192.765 -431.635)" fill="#01adee"/></g></svg>