<svg xmlns="http://www.w3.org/2000/svg" width="147.648" height="89.532" viewBox="0 0 147.648 89.532"><g transform="translate(0 -7.208)"><path d="M143.609,88.674H137.28a3.922,3.922,0,0,0,.734-2.185V11.239a4.028,4.028,0,0,0-4.031-4.031H13.658a4.03,4.03,0,0,0-4.031,4.031V86.493a3.891,3.891,0,0,0,.734,2.185H4.031a4.031,4.031,0,1,0,0,8.063H143.617a4.033,4.033,0,1,0-.008-8.067ZM74.253,63.667a13.063,13.063,0,0,1,4.37.548,4.359,4.359,0,0,1,2.141,1.6,4.506,4.506,0,0,1,.726,2.6,4.833,4.833,0,0,1-1.008,3.1,4.715,4.715,0,0,1-2.451,1.693,13.845,13.845,0,0,1-3.636.419h-2.52a5.122,5.122,0,0,1-1.548-.141.8.8,0,0,1-.4-.48,8.074,8.074,0,0,1-.125-1.858V63.671l4.455,0ZM69.795,58.6V50.19h3.781a17.412,17.412,0,0,1,4.612.411,3.608,3.608,0,0,1,1.955,1.375,4.187,4.187,0,0,1-.032,4.64,4.276,4.276,0,0,1-2.141,1.5,14.5,14.5,0,0,1-4.394.5l-3.781,0Zm2.145,20.524h3.314c.149,0,.29,0,.427,0v3.338H71.931l.008-3.334ZM17.686,15.271H129.938v67.19H113.466V20.886H93.761V82.465H81.53V78.648a13.786,13.786,0,0,0,2.584-.726,10.206,10.206,0,0,0,4.676-3.527,8.565,8.565,0,0,0,1.661-5.055,8.143,8.143,0,0,0-1.092-4.168A7.718,7.718,0,0,0,86.42,62.26,15.659,15.659,0,0,0,82.711,60.9a10.931,10.931,0,0,0,3.628-1.935,7.834,7.834,0,0,0,2.1-2.705,7.329,7.329,0,0,0,.742-3.241A7.234,7.234,0,0,0,87.787,48.7a8.7,8.7,0,0,0-3.947-3.015,12.58,12.58,0,0,0-2.322-.645V38.955H75.676v5.676H71.927V38.955H66.086v5.676H57.165V49.4h1.359a4.574,4.574,0,0,1,1.846.25,1.445,1.445,0,0,1,.681.669,6.128,6.128,0,0,1,.2,1.951V71.52a6.056,6.056,0,0,1-.2,1.935,1.393,1.393,0,0,1-.681.669,4.767,4.767,0,0,1-1.846.242H57.165v4.777h8.921v3.33H53.859V57.7h-19.7V82.473H17.681l0-67.2Z" transform="translate(0 0)" fill="#00adee"/></g></svg>