<svg xmlns="http://www.w3.org/2000/svg" width="121.345" height="121.345" viewBox="0 0 121.345 121.345"><g transform="translate(0 0)"><g transform="translate(0)"><path d="M118.323,116.3h-8.215a15.744,15.744,0,0,0,.125-2.022,14.064,14.064,0,0,0-8.09-12.818V33.382a1.911,1.911,0,0,0-2.022-2.022H69.785V1.023A1.911,1.911,0,0,0,67.762-1H13.157a1.91,1.91,0,0,0-2.023,2.022V116.3H1.022a2.022,2.022,0,0,0,0,4.045h117.3a2.022,2.022,0,0,0,0-4.045ZM98.1,100.264a14.6,14.6,0,0,0-2.022-.143,13.659,13.659,0,0,0-4.439.746,1.962,1.962,0,0,0-1.628-.746,1.911,1.911,0,0,0-2.022,2.022v.62a14.165,14.165,0,0,0-2.126,1.883q-.153.162-.3.329a12.814,12.814,0,0,0-6.275-4.348,2.04,2.04,0,0,0-1.41-.506,2.392,2.392,0,0,0-.632.082,11.981,11.981,0,0,0-1.39-.082,10.639,10.639,0,0,0-3.851.634c-.143.048-.285.1-.426.151a12.611,12.611,0,0,0-4.755-2.4l-.055-.014c-.15-.039-.3-.075-.452-.108-.123-.027-.247-.05-.371-.074l-.162-.03c-.13-.023-.261-.042-.392-.061l-.177-.023c-.121-.015-.242-.029-.364-.04-.089-.008-.178-.014-.267-.021s-.19-.014-.286-.019c-.192-.009-.384-.015-.577-.015q-.223,0-.443.009c-.1,0-.192.009-.288.015l-.116.007a11.886,11.886,0,0,0-5.22,1.563V35.4H98.1v64.86ZM15.179,3.046H65.74V31.36H55.628a1.911,1.911,0,0,0-2.022,2.022v62.9a14.651,14.651,0,0,0-3.522-2.592q-.172-.092-.346-.178l-.137-.068a14,14,0,0,0-4.655-1.331l-.069-.007q-.286-.028-.574-.045l-.153-.009c-.217-.01-.435-.017-.655-.017a13.722,13.722,0,0,0-8.09,2.654v-.631a2.022,2.022,0,0,0-4.045,0V98.1a2.3,2.3,0,0,0,.145.828,14.58,14.58,0,0,0-1.965,5.442,13.737,13.737,0,0,0-6.269,2.357v-.536a1.911,1.911,0,0,0-2.022-2.022,1.911,1.911,0,0,0-2.022,2.022v4.045a2.373,2.373,0,0,0,.09.659,14.1,14.1,0,0,0-1.966,5.408H15.18V3.046ZM30.438,108.253l.121-.009c.107-.008.213-.016.321-.021.159-.007.318-.012.479-.012a1.911,1.911,0,0,0,2.022-2.022A10.014,10.014,0,0,1,43.493,96.076a9.866,9.866,0,0,1,9.91,8.7,2.193,2.193,0,0,0,.906,1.3c.028.02.057.038.086.056s.062.039.095.056a2.092,2.092,0,0,0,.233.111l.009,0a2.252,2.252,0,0,0,.289.093h0a1.164,1.164,0,0,0,.4.051,1.956,1.956,0,0,0,1.62-.859h0l.2-.2a8.142,8.142,0,0,1,6.472-3.236,7.864,7.864,0,0,1,3.956,1.1,12.282,12.282,0,0,0-3.939,8.389q-.016.31-.016.625a11.892,11.892,0,0,0,.7,4.045H21.449A10.192,10.192,0,0,1,30.438,108.253ZM69.189,116.3a8.632,8.632,0,0,1-1.225-4.247,7.9,7.9,0,0,1,2.4-5.724,8.187,8.187,0,0,1,.925-.741,2.031,2.031,0,0,0,.925-.209,7.954,7.954,0,0,1,11.326,4.247,1.834,1.834,0,0,0,1.82,1.213,1.4,1.4,0,0,0,.618-.17,1.71,1.71,0,0,0,1.2-1.044,9.3,9.3,0,0,1,3.474-3.927,1.857,1.857,0,0,0,.81-.46,10.256,10.256,0,0,1,4.614-1.074,10.014,10.014,0,0,1,10.112,10.112,6.882,6.882,0,0,1-.2,2.022Z" transform="translate(1 0.999)" fill="#00adee"/><path d="M274.089,220.867a1.911,1.911,0,0,0-2.022,2.022v4.045a2.022,2.022,0,1,0,4.045,0v-4.045A1.911,1.911,0,0,0,274.089,220.867Z" transform="translate(-207.35 -168.284)" fill="#00adee"/><path d="M274.089,374.467a1.911,1.911,0,0,0-2.022,2.022v4.045a2.022,2.022,0,1,0,4.045,0v-4.045A1.911,1.911,0,0,0,274.089,374.467Z" transform="translate(-207.35 -285.481)" fill="#00adee"/><path d="M274.089,272.067a1.911,1.911,0,0,0-2.022,2.022v4.045a2.022,2.022,0,1,0,4.045,0v-4.045A1.911,1.911,0,0,0,274.089,272.067Z" transform="translate(-207.35 -207.35)" fill="#00adee"/><path d="M274.089,323.267a1.911,1.911,0,0,0-2.022,2.022v4.045a2.022,2.022,0,1,0,4.045,0v-4.045A1.911,1.911,0,0,0,274.089,323.267Z" transform="translate(-207.35 -246.415)" fill="#00adee"/><path d="M274.089,169.667a1.911,1.911,0,0,0-2.022,2.022v4.045a2.022,2.022,0,1,0,4.045,0v-4.045A1.911,1.911,0,0,0,274.089,169.667Z" transform="translate(-207.35 -129.219)" fill="#00adee"/><path d="M325.289,228.957a1.911,1.911,0,0,0,2.022-2.022v-4.045a2.022,2.022,0,1,0-4.045,0v4.045A1.911,1.911,0,0,0,325.289,228.957Z" transform="translate(-246.415 -168.284)" fill="#00adee"/><path d="M325.289,177.757a1.911,1.911,0,0,0,2.022-2.022v-4.045a2.022,2.022,0,1,0-4.045,0v4.045A1.911,1.911,0,0,0,325.289,177.757Z" transform="translate(-246.415 -129.219)" fill="#00adee"/><path d="M325.289,280.157a1.911,1.911,0,0,0,2.022-2.022v-4.045a2.022,2.022,0,0,0-4.045,0v4.045A1.911,1.911,0,0,0,325.289,280.157Z" transform="translate(-246.415 -207.35)" fill="#00adee"/><path d="M325.289,331.357a1.911,1.911,0,0,0,2.022-2.022v-4.045a2.022,2.022,0,0,0-4.045,0v4.045A1.911,1.911,0,0,0,325.289,331.357Z" transform="translate(-246.415 -246.415)" fill="#00adee"/><path d="M325.289,382.557a1.911,1.911,0,0,0,2.022-2.022v-4.045a2.022,2.022,0,1,0-4.045,0v4.045A1.911,1.911,0,0,0,325.289,382.557Z" transform="translate(-246.415 -285.481)" fill="#00adee"/><path d="M376.489,280.157a1.911,1.911,0,0,0,2.022-2.022v-4.045a2.022,2.022,0,1,0-4.045,0v4.045A1.911,1.911,0,0,0,376.489,280.157Z" transform="translate(-285.481 -207.35)" fill="#00adee"/><path d="M376.489,228.957a1.911,1.911,0,0,0,2.022-2.022v-4.045a2.022,2.022,0,1,0-4.045,0v4.045A1.911,1.911,0,0,0,376.489,228.957Z" transform="translate(-285.481 -168.284)" fill="#00adee"/><path d="M376.489,382.557a1.911,1.911,0,0,0,2.022-2.022v-4.045a2.022,2.022,0,1,0-4.045,0v4.045A1.911,1.911,0,0,0,376.489,382.557Z" transform="translate(-285.481 -285.481)" fill="#00adee"/><path d="M376.489,331.357a1.911,1.911,0,0,0,2.022-2.022v-4.045a2.022,2.022,0,1,0-4.045,0v4.045A1.911,1.911,0,0,0,376.489,331.357Z" transform="translate(-285.481 -246.415)" fill="#00adee"/><path d="M376.489,177.757a1.911,1.911,0,0,0,2.022-2.022v-4.045a2.022,2.022,0,1,0-4.045,0v4.045A1.911,1.911,0,0,0,376.489,177.757Z" transform="translate(-285.481 -129.219)" fill="#00adee"/><path d="M86.356,297.224a1.911,1.911,0,0,0,2.022-2.022v-4.045a2.022,2.022,0,1,0-4.045,0V295.2A1.911,1.911,0,0,0,86.356,297.224Z" transform="translate(-64.11 -220.372)" fill="#00adee"/><path d="M86.356,348.424a1.911,1.911,0,0,0,2.022-2.022v-4.045a2.022,2.022,0,0,0-4.045,0V346.4A1.911,1.911,0,0,0,86.356,348.424Z" transform="translate(-64.11 -259.438)" fill="#00adee"/><path d="M86.356,399.624a1.911,1.911,0,0,0,2.022-2.022v-4.045a2.022,2.022,0,1,0-4.045,0V397.6A1.911,1.911,0,0,0,86.356,399.624Z" transform="translate(-64.11 -298.503)" fill="#00adee"/><path d="M86.356,41.224A1.911,1.911,0,0,0,88.379,39.2V35.156a2.022,2.022,0,1,0-4.045,0V39.2A1.911,1.911,0,0,0,86.356,41.224Z" transform="translate(-64.11 -25.044)" fill="#00adee"/><path d="M86.356,92.424A1.911,1.911,0,0,0,88.379,90.4V86.356a2.022,2.022,0,1,0-4.045,0V90.4A1.911,1.911,0,0,0,86.356,92.424Z" transform="translate(-64.11 -64.11)" fill="#00adee"/><path d="M86.356,143.624a1.911,1.911,0,0,0,2.022-2.022v-4.045a2.022,2.022,0,1,0-4.045,0V141.6A1.911,1.911,0,0,0,86.356,143.624Z" transform="translate(-64.11 -103.175)" fill="#00adee"/><path d="M86.356,194.824a1.911,1.911,0,0,0,2.022-2.022v-4.045a2.022,2.022,0,1,0-4.045,0V192.8A1.911,1.911,0,0,0,86.356,194.824Z" transform="translate(-64.11 -142.241)" fill="#00adee"/><path d="M86.356,246.024A1.911,1.911,0,0,0,88.379,244v-4.045a2.022,2.022,0,1,0-4.045,0V244A1.911,1.911,0,0,0,86.356,246.024Z" transform="translate(-64.11 -181.306)" fill="#00adee"/><path d="M137.556,92.424a1.911,1.911,0,0,0,2.022-2.022V86.356a2.022,2.022,0,0,0-4.045,0V90.4A1.911,1.911,0,0,0,137.556,92.424Z" transform="translate(-103.175 -64.11)" fill="#00adee"/><path d="M137.556,41.224a1.911,1.911,0,0,0,2.022-2.022V35.156a2.022,2.022,0,0,0-4.045,0V39.2A1.911,1.911,0,0,0,137.556,41.224Z" transform="translate(-103.175 -25.044)" fill="#00adee"/><path d="M137.556,194.824a1.911,1.911,0,0,0,2.022-2.022v-4.045a2.022,2.022,0,1,0-4.045,0V192.8A1.911,1.911,0,0,0,137.556,194.824Z" transform="translate(-103.175 -142.241)" fill="#00adee"/><path d="M137.556,143.624a1.911,1.911,0,0,0,2.022-2.022v-4.045a2.022,2.022,0,0,0-4.045,0V141.6A1.911,1.911,0,0,0,137.556,143.624Z" transform="translate(-103.175 -103.175)" fill="#00adee"/><path d="M137.556,246.024A1.911,1.911,0,0,0,139.579,244v-4.045a2.022,2.022,0,1,0-4.045,0V244A1.911,1.911,0,0,0,137.556,246.024Z" transform="translate(-103.175 -181.306)" fill="#00adee"/><path d="M137.556,297.224a1.911,1.911,0,0,0,2.022-2.022v-4.045a2.022,2.022,0,0,0-4.045,0V295.2A1.911,1.911,0,0,0,137.556,297.224Z" transform="translate(-103.175 -220.372)" fill="#00adee"/><path d="M137.556,348.424a1.911,1.911,0,0,0,2.022-2.022v-4.045a2.022,2.022,0,0,0-4.045,0V346.4A1.911,1.911,0,0,0,137.556,348.424Z" transform="translate(-103.175 -259.438)" fill="#00adee"/><path d="M188.756,143.624a1.911,1.911,0,0,0,2.022-2.022v-4.045a2.022,2.022,0,0,0-4.045,0V141.6A1.911,1.911,0,0,0,188.756,143.624Z" transform="translate(-142.241 -103.175)" fill="#00adee"/><path d="M188.756,92.424a1.911,1.911,0,0,0,2.022-2.022V86.356a2.022,2.022,0,0,0-4.045,0V90.4A1.911,1.911,0,0,0,188.756,92.424Z" transform="translate(-142.241 -64.11)" fill="#00adee"/><path d="M188.756,41.224a1.911,1.911,0,0,0,2.022-2.022V35.156a2.022,2.022,0,0,0-4.045,0V39.2A1.911,1.911,0,0,0,188.756,41.224Z" transform="translate(-142.241 -25.044)" fill="#00adee"/><path d="M188.756,348.424a1.911,1.911,0,0,0,2.022-2.022v-4.045a2.022,2.022,0,0,0-4.045,0V346.4A1.911,1.911,0,0,0,188.756,348.424Z" transform="translate(-142.241 -259.438)" fill="#00adee"/><path d="M188.756,297.224a1.911,1.911,0,0,0,2.022-2.022v-4.045a2.022,2.022,0,0,0-4.045,0V295.2A1.911,1.911,0,0,0,188.756,297.224Z" transform="translate(-142.241 -220.372)" fill="#00adee"/><path d="M188.756,246.024A1.911,1.911,0,0,0,190.779,244v-4.045a2.022,2.022,0,0,0-4.045,0V244A1.911,1.911,0,0,0,188.756,246.024Z" transform="translate(-142.241 -181.306)" fill="#00adee"/><path d="M188.756,194.824a1.911,1.911,0,0,0,2.022-2.022v-4.045a2.022,2.022,0,1,0-4.045,0V192.8A1.911,1.911,0,0,0,188.756,194.824Z" transform="translate(-142.241 -142.241)" fill="#00adee"/><path d="M239.956,92.424a1.911,1.911,0,0,0,2.022-2.022V86.356a2.022,2.022,0,0,0-4.045,0V90.4A1.911,1.911,0,0,0,239.956,92.424Z" transform="translate(-181.306 -64.11)" fill="#00adee"/><path d="M239.956,41.224a1.911,1.911,0,0,0,2.022-2.022V35.156a2.022,2.022,0,0,0-4.045,0V39.2A1.911,1.911,0,0,0,239.956,41.224Z" transform="translate(-181.306 -25.044)" fill="#00adee"/></g></g></svg>