<svg xmlns="http://www.w3.org/2000/svg" width="126.223" height="69.117" viewBox="0 0 126.223 69.117"><path d="M124.029,123.329c-3.5-1.83-13.032,1.25-15.517,2.849-.813-1.447-1.736-3.032-2.737-4.655-5.116-8.3-9.455-13.107-13.265-14.7a3.024,3.024,0,0,0-.472-.153c-.327-.077-8.245-1.887-28.925-1.887s-28.6,1.81-28.925,1.887a3.015,3.015,0,0,0-.472.153c-3.81,1.594-8.149,6.4-13.265,14.7-1,1.623-1.924,3.208-2.737,4.655-2.484-1.6-12.022-4.679-15.517-2.849-3.607,1.888-2.162,7.831,0,9.443,1.349,1.006,5.052,1.312,8.951,1.053A13.674,13.674,0,0,0,9.1,137.746c6.149,1.153,20.6,1.1,18.443,5.789-3.16,6.855-12.888,5.906-18.885,2.858l1.12,19.327a8.178,8.178,0,0,0,8.178,8.178h4.918a8.177,8.177,0,0,0,8.178-8.178l-.161-1.733H95.336l-.16,1.733a8.177,8.177,0,0,0,8.178,8.178h4.918a8.178,8.178,0,0,0,8.178-8.178l1.119-19.327c-6,3.048-15.724,4-18.885-2.858-2.16-4.686,12.293-4.636,18.443-5.789a13.66,13.66,0,0,0-2.048-3.921c3.9.259,7.6-.047,8.951-1.053C126.19,131.16,127.635,125.217,124.029,123.329Zm-45.18,31.576H47.377l-3.27-11.923H82.119ZM23.4,128.339c3.915-6.849,8.917-14.163,12.413-15.849,1.466-.288,9.463-1.676,27.3-1.676,17.856,0,25.851,1.391,27.3,1.676,3.492,1.683,8.5,9,12.412,15.849Z" transform="translate(-0.001 -104.781)" fill="#00adee"/></svg>