<svg xmlns="http://www.w3.org/2000/svg" width="65" height="109.472" viewBox="0 0 65 109.472"><g transform="translate(-99.55)"><g transform="translate(99.55)"><path d="M185.4,0H149.35V26.938H185.4Zm-8.6,20.594H157.86a2.256,2.256,0,1,1,0-4.512H176.8a2.249,2.249,0,0,1,2.256,2.256A2.294,2.294,0,0,1,176.8,20.594Zm0-10.431H157.86A2.249,2.249,0,0,1,155.6,7.907a2.2,2.2,0,0,1,2.256-2.256H176.8a2.256,2.256,0,1,1,0,4.512Z" transform="translate(-138.226)" fill="#00adee"/><path d="M151.17,104.753H106.251V94.5h-3.216a3.489,3.489,0,0,0-3.485,3.485v81.395a3.489,3.489,0,0,0,3.485,3.485h51.776V94.5H151.17ZM117.464,169.64H114.94a2.256,2.256,0,1,1,0-4.512h2.524a2.256,2.256,0,1,1,0,4.512Zm0-11.392H114.94a2.256,2.256,0,1,1,0-4.512h2.524a2.256,2.256,0,1,1,0,4.512Zm0-11.369H114.94a2.249,2.249,0,0,1-2.256-2.256,2.2,2.2,0,0,1,2.256-2.256h2.524a2.249,2.249,0,0,1,2.256,2.256A2.2,2.2,0,0,1,117.464,146.879Zm12.419,22.761h-2.524a2.256,2.256,0,1,1,0-4.512h2.524a2.256,2.256,0,1,1,0,4.512Zm0-11.392h-2.524a2.256,2.256,0,1,1,0-4.512h2.524a2.256,2.256,0,1,1,0,4.512Zm0-11.369h-2.524a2.249,2.249,0,0,1-2.256-2.256,2.2,2.2,0,0,1,2.256-2.256h2.524a2.249,2.249,0,0,1,2.256,2.256A2.2,2.2,0,0,1,129.883,146.879ZM142.3,169.64h-2.435a2.256,2.256,0,1,1,0-4.512h2.524a2.249,2.249,0,0,1,2.256,2.256A2.39,2.39,0,0,1,142.3,169.64Zm0-11.392h-2.435a2.256,2.256,0,1,1,0-4.512h2.524a2.249,2.249,0,0,1,2.256,2.256A2.373,2.373,0,0,1,142.3,158.249Zm0-11.369h-2.435a2.249,2.249,0,0,1-2.256-2.256,2.2,2.2,0,0,1,2.256-2.256h2.524a2.257,2.257,0,1,1-.089,4.512Zm7.125-18.07H107.9V109.957h41.524Z" transform="translate(-99.55 -73.392)" fill="#00adee"/><path d="M368.582,94.5H366.75v88.341h1.832a3.489,3.489,0,0,0,3.484-3.485V97.985A3.518,3.518,0,0,0,368.582,94.5Z" transform="translate(-307.067 -73.392)" fill="#00adee"/></g></g></svg>