<svg xmlns="http://www.w3.org/2000/svg" width="99.052" height="68.865" viewBox="0 0 99.052 68.865"><g transform="translate(0 -78.019)"><g transform="translate(4.009 138.158)"><path d="M20.724,388.876v5.188a3.538,3.538,0,0,0,7.075,0v-5.188Z" transform="translate(-20.724 -388.876)" fill="#00adee"/></g><g transform="translate(87.968 138.158)"><path d="M454.705,388.876v5.188a3.538,3.538,0,0,0,7.075,0v-5.188Z" transform="translate(-454.705 -388.876)" fill="#00adee"/></g><g transform="translate(0 110.093)"><g transform="translate(0 0)"><rect width="99.052" height="25.471" fill="#00adee"/></g></g><g transform="translate(12.264 78.019)"><g transform="translate(0 0)"><path d="M132.546,78.019H68.761a5.187,5.187,0,0,0-5.37,5.1v9.524l4.636-.006a3.2,3.2,0,0,1-.077-.707,3.783,3.783,0,0,1,3.832-3.773h57.742a3.782,3.782,0,0,1,3.832,3.773,3.212,3.212,0,0,1-.077.707h4.636V83.122A5.188,5.188,0,0,0,132.546,78.019Z" transform="translate(-63.391 -78.019)" fill="#00adee"/></g></g><g transform="translate(6.329 98.519)"><path d="M114.72,183.985H37.066l-4.353,6.385h86.395Z" transform="translate(-32.713 -183.985)" fill="#00adee"/></g></g></svg>