<svg xmlns="http://www.w3.org/2000/svg" width="130.638" height="73.255" viewBox="0 0 130.638 73.255"><g transform="translate(0 -134.412)"><g transform="translate(0 134.412)"><path d="M48.405,185.843a10.912,10.912,0,1,0,10.9,10.921A10.907,10.907,0,0,0,48.405,185.843Zm0,16.372a5.452,5.452,0,1,1,5.452-5.452A5.458,5.458,0,0,1,48.405,202.215Zm82.233-24.439v11.642a5.259,5.259,0,0,1-5.259,5.259h-5.627a14.43,14.43,0,0,0-28.555,0H62.677a14.419,14.419,0,0,0-28.537,0H27.093a5.258,5.258,0,0,1-5.259-5.259V177.776Zm-25.158,8.066a10.912,10.912,0,1,0,10.9,10.921A10.922,10.922,0,0,0,105.48,185.843Zm0,16.372a5.452,5.452,0,1,1,5.452-5.452A5.458,5.458,0,0,1,105.48,202.215Zm23.086-36.163L107.9,145.613a7.025,7.025,0,0,0-4.926-2.033H92.544v-3.909a5.252,5.252,0,0,0-5.259-5.259H27.09a5.263,5.263,0,0,0-5.259,5.259v.824l-21.34,2.46L38.3,147.878,0,151.683l38.17,5.427L0,160.42l21.832,4.118v10.332h108.8V171.03A7.045,7.045,0,0,0,128.566,166.052Zm-9.01.684h-20a.823.823,0,0,1-.824-.824V150.469a.823.823,0,0,1,.824-.824h3.8a.889.889,0,0,1,.578.228l16.179,15.443A.822.822,0,0,1,119.556,166.736Z" transform="translate(0 -134.412)" fill="#00adee"/></g></g></svg>